<?xml version="1.0" encoding="iso-8859-1"?><svg width="34" height="204" viewBox="0 0 34 204" xmlns="http://www.w3.org/2000/svg" xmlns:xlink="http://www.w3.org/1999/xlink"><svg viewBox="-15 -15 503 503" width="34" height="34" id="help" xmlns="http://www.w3.org/2000/svg"><g stroke="#fff" fill="#fff"><path d="M231.2 336.033c-9.35 0-17 7.65-17 17v11.333c0 9.35 7.65 17 17 17s17-7.65 17-17v-11.333c0-9.35-7.65-17-17-17z"/><path d="M236.867 473.733c130.617 0 236.867-106.25 236.867-236.867S367.483 0 236.867 0 0 106.25 0 236.867s106.25 236.866 236.867 236.866zm0-439.733c111.917 0 202.867 90.95 202.867 202.867s-90.95 202.867-202.867 202.867S34 348.783 34 236.867 124.95 34 236.867 34z"/><path d="M163.2 194.367c.283 0 .283 0 0 0 9.35 0 17-7.083 17-16.433 0 0 .283-13.6 7.083-26.917 8.5-17 23.517-25.5 45.617-25.5 20.683 0 35.983 5.667 44.483 16.717 7.083 9.067 9.067 21.533 5.667 35.133-4.25 16.717-18.7 31.167-32.583 45.333-17 17.567-34.85 35.417-34.85 59.5 0 9.35 7.65 17 17 17s17-7.65 17-17c0-10.2 12.183-22.667 25.217-35.7 16.15-16.433 34.567-35.133 41.083-60.633 6.233-23.517 1.983-47.033-11.617-64.317-10.483-13.6-31.45-30.033-71.117-30.033-44.483 0-65.733 23.8-75.933 44.2-10.2 20.4-10.767 39.95-10.767 42.217 0 9.066 7.367 16.433 16.717 16.433z"/></g></svg><svg viewBox="-15 -15 527 527" width="34" height="34" id="keys" y="34" xmlns="http://www.w3.org/2000/svg"><g stroke="#fff" fill="#fff"><path d="M136 0C78.656 0 32 46.656 32 104c0 36.72 19.184 68.984 48 87.496v234.8l36.976 59.168C121.104 492.064 128.216 496 136 496s14.896-3.936 19.024-10.536L192 426.296v-30.832l-37.056-22.232c-1.84-1.104-2.944-3.064-2.944-5.232s1.104-4.128 2.944-5.232L192 340.528v-49.064l-37.024-22.208A6.158 6.158 0 0 1 152 264a6.158 6.158 0 0 1 2.976-5.256L192 236.528v-44.896c29.4-18.832 48-51.688 48-87.632C240 46.656 193.344 0 136 0zm29.336 187l5.336 15.08c1.816-.64 3.568-1.392 5.328-2.12v27.512l-29.256 17.552C140.12 249 136 256.272 136 264s4.12 15 10.744 18.976L176 300.528v30.936l-29.296 17.576C140.104 353.016 136 360.272 136 368c0 7.728 4.104 14.984 10.704 18.952L176 404.528v17.168l-34.544 55.272c-2.36 3.784-8.544 3.784-10.904 0L96 421.704V199.976A103.452 103.452 0 0 0 136 208c5.816 0 11.648-.488 17.328-1.44l-2.656-15.784A87.933 87.933 0 0 1 136 192c-48.52 0-88-39.48-88-88s39.48-88 88-88 88 39.48 88 88c0 37.24-23.576 70.592-58.664 83z"/><path d="M136 40c-35.288 0-64 28.712-64 64s28.712 64 64 64 64-28.712 64-64-28.712-64-64-64zm0 112c-26.472 0-48-21.528-48-48s21.528-48 48-48 48 21.528 48 48-21.528 48-48 48zM424 104c0-35.288-28.712-64-64-64s-64 28.712-64 64 28.712 64 64 64 64-28.712 64-64zm-64 48c-26.472 0-48-21.528-48-48s21.528-48 48-48 48 21.528 48 48-21.528 48-48 48z"/><path d="M400 199.904C438.504 183.84 464 146 464 104 464 46.656 417.344 0 360 0S256 46.656 256 104c0 42 25.496 79.84 64 95.904V496h144v-56h-64v-32h64v-56h-64V199.904zM448 368v24h-64v64h64v24H336V188.768l-5.328-1.88C295.576 174.456 272 141.152 272 104c0-48.52 39.48-88 88-88s88 39.48 88 88c0 37.152-23.576 70.456-58.672 82.88L384 188.768V368h64z"/></g></svg><svg viewBox="-12 -12 409 409" width="34" height="34" id="logout" y="68" xmlns="http://www.w3.org/2000/svg"><g stroke="#fff" fill="#fff"><path d="M180.455 360.91H24.061V24.061h156.394c6.641 0 12.03-5.39 12.03-12.03s-5.39-12.03-12.03-12.03H12.03C5.39.001 0 5.39 0 12.031V372.94c0 6.641 5.39 12.03 12.03 12.03h168.424c6.641 0 12.03-5.39 12.03-12.03.001-6.641-5.389-12.03-12.029-12.03z"/><path d="M381.481 184.088l-83.009-84.2a11.942 11.942 0 0 0-17.011 0c-4.704 4.74-4.704 12.439 0 17.179l62.558 63.46H96.279c-6.641 0-12.03 5.438-12.03 12.151s5.39 12.151 12.03 12.151h247.74l-62.558 63.46c-4.704 4.752-4.704 12.439 0 17.179a11.931 11.931 0 0 0 17.011 0l82.997-84.2c4.644-4.68 4.692-12.512.012-17.18z"/></g></svg><svg viewBox="-16 -16 544 544" width="34" height="34" id="menu" y="102" xmlns="http://www.w3.org/2000/svg"><g stroke="#fff" fill="#fff"><path d="M491.318 235.318H20.682C9.26 235.318 0 244.577 0 256s9.26 20.682 20.682 20.682h470.636c11.423 0 20.682-9.259 20.682-20.682 0-11.422-9.259-20.682-20.682-20.682zM491.318 78.439H20.682C9.26 78.439 0 87.699 0 99.121c0 11.422 9.26 20.682 20.682 20.682h470.636c11.423 0 20.682-9.26 20.682-20.682 0-11.422-9.259-20.682-20.682-20.682zM491.318 392.197H20.682C9.26 392.197 0 401.456 0 412.879s9.26 20.682 20.682 20.682h470.636c11.423 0 20.682-9.259 20.682-20.682s-9.259-20.682-20.682-20.682z"/></g></svg><svg viewBox="-14 -14 485 485" width="34" height="34" id="settings" y="136" xmlns="http://www.w3.org/2000/svg"><g stroke="#fff" fill="#fff"><path d="M97.564 79.443H13.428C6.011 79.443 0 73.428 0 66.015s6.011-13.428 13.428-13.428h84.136c7.417 0 13.428 6.015 13.428 13.428s-6.011 13.428-13.428 13.428z"/><path d="M145.643 127.518c-33.916 0-61.507-27.591-61.507-61.504 0-33.92 27.591-61.511 61.507-61.511s61.507 27.591 61.507 61.511c0 33.914-27.591 61.504-61.507 61.504zm0-96.158c-19.107 0-34.651 15.547-34.651 34.654s15.544 34.647 34.651 34.647 34.651-15.54 34.651-34.647S164.75 31.36 145.643 31.36zM443.128 79.443H242.433c-7.417 0-13.428-6.015-13.428-13.428s6.011-13.428 13.428-13.428h200.694c7.417 0 13.428 6.015 13.428 13.428s-6.01 13.428-13.427 13.428zM325.936 289.782c-33.917 0-61.507-27.591-61.507-61.504s27.591-61.504 61.507-61.504 61.507 27.591 61.507 61.504-27.59 61.504-61.507 61.504zm0-96.151c-19.107 0-34.651 15.54-34.651 34.647s15.544 34.647 34.651 34.647 34.651-15.54 34.651-34.647-15.544-34.647-34.651-34.647zM229.149 241.706H13.428C6.011 241.706 0 235.691 0 228.278s6.011-13.428 13.428-13.428h215.721c7.417 0 13.428 6.015 13.428 13.428s-6.011 13.428-13.428 13.428z"/><path d="M443.128 241.706h-69.113c-7.417 0-13.428-6.015-13.428-13.428s6.011-13.428 13.428-13.428h69.113c7.417 0 13.428 6.015 13.428 13.428s-6.011 13.428-13.428 13.428zM130.62 452.052c-33.916 0-61.507-27.591-61.507-61.511 0-33.913 27.591-61.504 61.507-61.504s61.507 27.591 61.507 61.504c0 33.92-27.591 61.511-61.507 61.511zm0-96.158c-19.107 0-34.651 15.54-34.651 34.647s15.544 34.654 34.651 34.654 34.651-15.547 34.651-34.654-15.544-34.647-34.651-34.647zM443.128 403.97H227.407c-7.417 0-13.428-6.015-13.428-13.428 0-7.413 6.011-13.428 13.428-13.428h215.721c7.417 0 13.428 6.015 13.428 13.428 0 7.413-6.011 13.428-13.428 13.428z"/><path d="M82.541 403.97H13.428C6.011 403.97 0 397.955 0 390.541c0-7.413 6.011-13.428 13.428-13.428h69.113c7.417 0 13.428 6.015 13.428 13.428 0 7.414-6.011 13.429-13.428 13.429z"/></g></svg><svg viewBox="-2 -2 64 64" width="34" height="34" id="users" y="170" xmlns="http://www.w3.org/2000/svg"><path stroke="#fff" fill="#fff" d="M55.517 46.55l-9.773-4.233c-.23-.115-.485-.396-.704-.771l6.525-.005c.114.011 2.804.257 4.961-.67a2.94 2.94 0 0 0 1.669-1.907 2.967 2.967 0 0 0-.426-2.523c-1.865-2.654-6.218-9.589-6.354-16.623-.003-.121-.397-12.083-12.21-12.18-1.739.014-3.347.309-4.81.853a8.316 8.316 0 0 0-1.488-2.459C30.854 3.688 27.521 2.5 23 2.5s-7.854 1.188-9.908 3.53c-2.368 2.701-2.148 5.976-2.092 6.525v5.319c-.64.729-1 1.662-1 2.625v4c0 1.217.553 2.352 1.497 3.109.916 3.627 2.833 6.36 3.503 7.237v3.309c0 .968-.528 1.856-1.377 2.32L4.702 45.34A9.02 9.02 0 0 0 0 53.262V57.5h60v-3.697a8.065 8.065 0 0 0-4.483-7.253zM44 55.5H2v-2.238a7.016 7.016 0 0 1 3.659-6.164l8.921-4.866A4.644 4.644 0 0 0 17 38.155v-4.019l-.233-.278c-.024-.029-2.475-2.994-3.41-7.065l-.091-.396-.341-.22A1.995 1.995 0 0 1 12 24.5v-4c0-.561.238-1.084.67-1.475l.33-.297V12.5l-.009-.131c-.003-.027-.343-2.799 1.605-5.021C16.253 5.458 19.081 4.5 23 4.5c3.905 0 6.727.951 8.386 2.828.825.932 1.24 1.973 1.447 2.867l.045.208c.014.071.029.142.04.21a12.777 12.777 0 0 1 .057.384c.015.124.027.244.035.355l.001.026a9.417 9.417 0 0 1 .016.354c.002.083.002.162.001.231v.03c-.004.235-.02.375-.02.378L33 18.728l.33.298c.432.39.67.913.67 1.474v4c0 .873-.572 1.637-1.422 1.899l-.498.153-.16.495a20.934 20.934 0 0 1-2.834 5.713c-.297.421-.586.794-.837 1.079l-.249.284v4.125c0 .253.025.501.064.745.008.052.022.102.032.154a4.692 4.692 0 0 0 .203.723c.078.209.169.411.275.605l.035.067c.145.256.312.499.504.723l.228.281h.039c.343.338.737.632 1.185.856l9.553 4.776A6.979 6.979 0 0 1 44 53.457V55.5zm14 0H46v-2.043a8.972 8.972 0 0 0-4.986-8.068l-6.858-3.43c.169-.386.191-.828.043-1.254a1.706 1.706 0 0 0-1.63-1.16h-2.217c-.046-.081-.076-.17-.113-.256-.05-.115-.109-.228-.142-.349a2.61 2.61 0 0 1-.097-.692v-3.381c.229-.28.47-.599.719-.951a22.886 22.886 0 0 0 2.954-5.799A3.968 3.968 0 0 0 36 24.5v-4c0-.963-.36-1.896-1-2.625v-5.319a8.799 8.799 0 0 0-.084-2.139c1.288-.506 2.731-.767 4.29-.78 9.841.081 10.2 9.811 10.21 10.221.147 7.583 4.746 14.927 6.717 17.732a.97.97 0 0 1 .139.827.934.934 0 0 1-.535.615c-1.68.723-3.959.518-4.076.513h-6.883c-.643 0-1.229.327-1.568.874a1.823 1.823 0 0 0-.086 1.783c.313.631.866 1.474 1.775 1.927l9.747 4.222A6.074 6.074 0 0 1 58 53.803V55.5z"/></svg></svg>