<?xml version="1.0" encoding="iso-8859-1"?>
<svg version="1.1" xmlns="http://www.w3.org/2000/svg" xmlns:xlink="http://www.w3.org/1999/xlink" x="0px" y="0px" viewBox="0 0 512 512" style="enable-background:new 0 0 512 512;" xml:space="preserve">
<g stroke="white" fill="white">
	<g>
		<path d="M373.333,0H32C19.2,0,10.667,8.533,10.667,21.333v469.333C10.667,503.467,19.2,512,32,512h213.333v-42.667h-192V42.667
			H352v192h42.667V21.333C394.667,8.533,386.133,0,373.333,0z"/>
	</g>
	<g>
		<circle cx="117.333" cy="106.667" r="21.333"/>
	</g>
	<g>
		<circle cx="117.333" cy="213.333" r="21.333"/>
	</g>
	<g>
		<circle cx="117.333" cy="320" r="21.333"/>
	</g>
	<g>
		<rect x="160" y="85.333" width="149.333" height="42.667"/>
	</g>
	<g>
		<rect x="160" y="192" width="106.667" height="42.667"/>
	</g>
	<g>
		<rect x="160" y="298.667" width="64" height="42.667"/>
	</g>
	<g>
		<path d="M458.667,384c0,46.933-38.4,85.333-85.333,85.333S288,430.933,288,384s38.4-85.333,85.333-85.333
			c10.667,0,23.467,2.133,34.133,6.4l17.067-38.4c-64-27.733-140.8,2.133-168.533,66.133c-27.733,64,2.133,140.8,66.133,168.533
			c64,27.733,140.8-2.133,168.533-66.133c6.4-17.067,10.667-34.133,10.667-51.2H458.667z"/>
	</g>
	<g>
		<path d="M443.733,305.067l-70.4,70.4L345.6,347.733L315.733,377.6l42.667,42.667c8.533,8.533,21.333,8.533,29.867,0l85.333-85.333
			L443.733,305.067z"/>
	</g>
</g>
</svg>
