<?xml version="1.0"?>
<svg xmlns="http://www.w3.org/2000/svg" viewBox="0 0 50 50">
    <path stroke="white" fill="white" d="M 26.273438 4.4472656 C 26.15 4.4566406 26.025391 4.475 25.900391 4.5 C 24.900391 4.7 23.800781 5.5 22.800781 6.5 L 27.599609 9.5 C 28.199609 7.5 28.600781 5.4992187 27.300781 4.6992188 C 27.000781 4.4742187 26.64375 4.4191406 26.273438 4.4472656 z M 21.400391 8 C 20.888416 8.6399685 20.066517 9.7056334 19.117188 10.988281 L 9.1992188 12.800781 C 8.5992188 12.900781 7.9992188 13.4 7.6992188 14 L 3 25.5 C 2.8 26.1 2.5992187 26.700781 2.6992188 27.300781 C 2.8992187 29.500781 4.8 31.2 7 31 C 7.4677432 30.953226 7.9335831 30.856394 8.3808594 30.691406 L 13 33.599609 C 13.642922 32.715591 14.927243 30.940185 16.214844 29.179688 C 18.89012 30.557823 25.699219 34 25.699219 34 C 27.899219 35.2 30.500391 35.400391 32.900391 34.900391 L 40.800781 33.199219 L 41.199219 36.099609 L 47 35.300781 L 44.400391 17.699219 L 38.599609 18.5 L 38.699219 19.300781 L 28.199219 12.699219 C 27.783402 12.46821 27.279268 12.156284 26.761719 11.892578 C 26.799769 11.808801 26.866587 11.675666 26.900391 11.599609 L 21.400391 8 z M 21.900391 10.800781 L 24.300781 12.300781 C 23.300781 14.300781 21.800391 17.200781 19.900391 20.300781 L 19.390625 21.181641 L 17.099609 20.599609 C 16.391425 20.487791 15.696977 20.571571 15.068359 20.8125 C 15.511792 20.064066 15.95723 19.31252 16.400391 18.599609 C 18.400391 15.399609 20.400391 12.600781 21.900391 10.800781 z M 17.410156 13.367188 C 16.545198 14.600447 15.639819 15.922305 14.699219 17.400391 C 12.537318 20.952084 10.486744 24.793091 8.9609375 27.658203 C 8.6457927 28.24444 7.9678574 28.903214 7 29 C 6.1 29.1 5.1007813 28.499609 4.8007812 27.599609 C 4.6007812 27.099609 4.7003906 26.599219 4.9003906 26.199219 L 9.3007812 15.300781 C 9.4007812 15.000781 9.7 14.799219 10 14.699219 L 17.410156 13.367188 z M 25.849609 13.789062 C 26.372643 14.054091 26.914854 14.357818 27.199219 14.5 L 38.300781 21.5 L 39 21.5 L 40.400391 31.199219 L 32.400391 32.900391 C 30.400391 33.300391 28.3 33.099219 26.5 32.199219 L 15.599609 26.699219 C 14.599609 26.199219 14.099609 25.1 14.599609 24 C 14.999609 23 16 22.499219 17 22.699219 L 25.099609 24.699219 L 28.199219 20.199219 L 26.400391 19.099609 L 24.199219 22.400391 L 21.457031 21.705078 C 23.325958 18.651746 24.828123 15.839055 25.849609 13.789062 z M 42.699219 20 L 44.699219 33.599609 L 42.900391 33.900391 L 40.900391 20.199219 L 42.699219 20 z M 12.5 25.298828 C 12.580858 25.739559 12.70832 26.177055 12.900391 26.599609 C 13.300391 27.399609 13.900781 27.899219 14.300781 28.199219 C 14.302198 28.200635 14.457044 28.279572 14.462891 28.283203 L 12.5 30.900391 L 10.199219 29.5 C 10.815409 28.349778 11.649379 26.829614 12.5 25.298828 z M 6.9003906 32.099609 C 5.8003906 35.199609 5.8007812 37.2 5.8007812 38 L 5.0996094 39 C 4.8996094 39.3 5.0007813 39.700391 5.3007812 39.900391 C 5.5007812 40.000391 5.6007812 40 5.8007812 40 C 6.0007812 39.9 6.1007812 39.799219 6.3007812 39.699219 L 6.9003906 38.699219 C 7.6003906 38.399219 9.3992187 37.499609 11.699219 35.099609 L 6.9003906 32.099609 z"/>
</svg>
