<?xml version="1.0" encoding="iso-8859-1"?>
<svg version="1.1" id="Capa_1" xmlns="http://www.w3.org/2000/svg" xmlns:xlink="http://www.w3.org/1999/xlink" x="0px" y="0px" viewBox="0 0 306.25 306.25" style="enable-background:new 0 0 306.25 306.25;" xml:space="preserve">
<g stroke="white" fill="white">
	<path d="M138.324,140.49V60.911c0-9.649-7.851-17.5-17.5-17.5H17.5c-9.649,0-17.5,7.851-17.5,17.5v79.579
		c0,9.649,7.851,17.5,17.5,17.5h103.324C130.474,157.99,138.324,150.139,138.324,140.49z M116.705,58.411l-44.17,33.865
		c-1.671,1.281-5.075,1.281-6.746,0L21.618,58.411H116.705z M15,140.49V72.239l41.663,31.941c3.504,2.687,8.001,4.03,12.498,4.03
		c4.497,0,8.995-1.344,12.5-4.03l41.663-31.942v68.252c0,1.355-1.145,2.5-2.5,2.5H17.5C16.145,142.99,15,141.845,15,140.49z"/>
	<path d="M288.75,148.259H185.426c-9.649,0-17.5,7.851-17.5,17.5v79.58c0,9.649,7.851,17.5,17.5,17.5H288.75
		c9.649,0,17.5-7.851,17.5-17.5v-79.58C306.25,156.11,298.399,148.259,288.75,148.259z M284.631,163.259l-44.17,33.864
		c-1.67,1.28-5.075,1.281-6.746-0.001l-44.169-33.864H284.631z M288.75,247.839H185.426c-1.355,0-2.5-1.145-2.5-2.5v-68.254
		l41.663,31.942c3.505,2.687,8.001,4.03,12.5,4.03c4.497,0,8.995-1.344,12.499-4.03l41.663-31.941v68.253
		C291.25,246.694,290.105,247.839,288.75,247.839z"/>
	<path d="M233.663,134.449c1.276,2.719,3.976,4.314,6.793,4.314c1.068,0,2.153-0.229,3.183-0.713
		c3.749-1.76,5.361-6.227,3.601-9.977c-13.8-29.389-45.924-50.719-83.835-55.665c-4.107-0.533-7.871,2.36-8.407,6.467
		c-0.536,4.107,2.359,7.871,6.467,8.407C194.351,91.573,222.016,109.646,233.663,134.449z"/>
	<path d="M146.229,233.724c-42.561,0-79.691-22.769-90.295-55.371c-1.281-3.939-5.512-6.093-9.452-4.813
		c-3.939,1.281-6.094,5.513-4.813,9.452c12.588,38.701,55.585,65.731,104.56,65.731c4.142,0,7.5-3.358,7.5-7.5
		S150.371,233.724,146.229,233.724z"/>
</g>
</svg>
